<svg xmlns="http://www.w3.org/2000/svg" viewBox="0 0 151.72 130"><defs><style>.cls-1{fill:#e93866;}.cls-2{fill:#261a3e;}</style></defs><g id="Layer_2" data-name="Layer 2"><g id="Layer_1-2" data-name="Layer 1"><circle class="cls-1" cx="75.86" cy="22.18" r="22.18"/><path class="cls-2" d="M151.25,122.84,125.93,40.49a5,5,0,0,0-8.38-1.17L75.88,68.83l.13.11L34.17,39.32a5,5,0,0,0-8.38,1.17L.48,122.84A5,5,0,0,0,5,130h50.5A3.46,3.46,0,0,0,59,126.53v-10.7a3.47,3.47,0,0,0-3.47-3.47H22.14L37.28,63.12l86.17,65.41a7.16,7.16,0,0,0,4.36,1.47c19.34,0,5.79,0,18.87,0h0A5,5,0,0,0,151.25,122.84Z"/></g></g></svg>